<svg width="68" height="58" viewBox="0 0 68 58" fill="none" xmlns="http://www.w3.org/2000/svg">
<g clip-path="url(#clip0_30_123)">
<path d="M18.8516 26.1191C22.8481 32.8562 29.2869 38.3553 37.141 41.8072L43.2468 36.5699C43.9961 35.9271 45.1062 35.7129 46.0776 35.9985C49.186 36.8794 52.5441 37.3555 55.9855 37.3555C57.512 37.3555 58.7609 38.4268 58.7609 39.7361V48.0444C58.7609 49.3537 57.512 50.425 55.9855 50.425C29.9252 50.425 8.80493 32.3086 8.80493 9.95482C8.80493 8.64549 10.0538 7.57422 11.5803 7.57422H21.2939C22.8203 7.57422 24.0692 8.64549 24.0692 9.95482C24.0692 12.9306 24.6243 15.7873 25.6512 18.4535C25.9565 19.2868 25.7344 20.2152 24.9573 20.8818L18.8516 26.1191Z" fill="#EB3223"/>
</g>
<defs>
<clipPath id="clip0_30_123">
<rect width="66.6079" height="57.1343" fill="white" transform="translate(0.478943 0.432617)"/>
</clipPath>
</defs>
</svg>
