<svg width="123" height="129" viewBox="0 0 123 129" fill="none" xmlns="http://www.w3.org/2000/svg">
<path d="M61.5 0.0349121C37.0779 0.0349121 15.1869 9.89091 0 25.6349L61.5 128.035L123 25.6349C107.882 9.95491 85.9221 0.0349121 61.5 0.0349121ZM27.2953 32.0349C27.2953 24.9949 33.4522 19.2349 40.9772 19.2349C48.5022 19.2349 54.6591 24.9949 54.6591 32.0349C54.6591 39.0749 48.5022 44.8349 40.9772 44.8349C33.4522 44.8349 27.2953 39.0749 27.2953 32.0349ZM61.5 83.2349C53.975 83.2349 47.8181 77.4749 47.8181 70.4349C47.8181 63.3949 53.975 57.6349 61.5 57.6349C69.025 57.6349 75.1819 63.3949 75.1819 70.4349C75.1819 77.4749 69.025 83.2349 61.5 83.2349Z" fill="white"/>
</svg>
